<?xml version="1.0" encoding="utf-8"?>
<!-- Generator: Adobe Illustrator 16.0.0, SVG Export Plug-In . SVG Version: 6.00 Build 0)  -->
<!DOCTYPE svg PUBLIC "-//W3C//DTD SVG 1.1//EN" "http://www.w3.org/Graphics/SVG/1.1/DTD/svg11.dtd">
<svg version="1.1" id="Layer_1" xmlns="http://www.w3.org/2000/svg" xmlns:xlink="http://www.w3.org/1999/xlink" x="0px" y="0px"
	 width="512px" height="512px" viewBox="0 0 512 512" enable-background="new 0 0 512 512" xml:space="preserve">
<g>
	<path fill="#6104FF" d="M256.18,1.019c-50.153-0.036-99.19,14.888-140.909,42.888C73.55,71.904,41.026,111.717,21.81,158.304
		C2.596,204.897-2.45,256.176,7.317,305.653c9.764,49.474,33.904,94.926,69.358,130.6c35.455,35.673,80.635,59.972,129.826,69.822
		c49.187,9.847,100.175,4.801,146.513-14.5c46.338-19.302,85.944-51.987,113.804-93.93c27.864-41.943,42.73-91.248,42.719-141.692
		c-0.012-67.586-26.703-132.399-74.212-180.204C387.817,27.945,323.384,1.067,256.18,1.019z M351.616,294.879
		c0,0.677,0,1.314,0,1.896c-0.045,0.66-0.136,1.309-0.271,1.95v1.17c-1.286,7.379-4.005,14.435-8,20.759
		c-0.766,1.218-1.575,2.345-2.386,3.431c-1.079,1.394-2.234,2.719-3.458,3.978c-1.193,1.507-2.502,2.91-3.912,4.207l-0.539,0.456
		l-0.722,0.63l-0.314,0.27l-1.481,1.224l-1.619,1.219l-0.357,0.221l-1.621,1.134l-117.552,78.301
		c-0.947,0.672-2.079,1.021-3.236,0.997c-0.402,0.048-0.811,0.048-1.215,0c-0.756-0.157-1.473-0.462-2.106-0.901
		c-0.633-0.443-1.17-1.02-1.579-1.679c0-0.313-2.787-4.835-2.966-5.148c-0.147-0.36-0.312-0.707-0.495-1.043v-0.492
		c-0.123-0.216-0.228-0.444-0.314-0.685v-0.492c0-0.275-0.226-0.503-0.315-0.768v-0.366l-0.315-0.858
		c-4.644-12.07-5.052-25.371-1.152-37.701c3.899-12.335,11.874-22.96,22.594-30.111l54.755-36.483
		c0.849-0.576,1.512-1.38,1.904-2.333c0.393-0.949,0.495-1.999,0.297-3.006c-0.176-1.02-0.66-1.957-1.383-2.694
		c-0.723-0.738-1.652-1.23-2.663-1.416l-64.328-13.157l-1.842-0.408h-0.495l-1.709-0.45l-1.842-0.546l-0.72-0.27l-0.99-0.318h-0.492
		l-1.755-0.672h-0.54l-1.077-0.455h-0.495l-1.709-0.817h-0.312c-0.594-0.251-1.164-0.558-1.71-0.899l-1.662-0.947l-1.62-0.997
		c-5.084-3.232-9.636-7.246-13.487-11.891l-1.392-1.992l-1.617-2.436c-5.684-8.363-8.975-18.125-9.515-28.233
		c-0.54-10.115,1.695-20.177,6.455-29.098c0.585-1.177,1.215-2.256,1.845-3.3l0.942-1.488c0.72-1.128,1.53-2.262,2.339-3.348
		c0.273-0.408,0.573-0.804,0.897-1.175c0.357-0.493,0.747-0.96,1.17-1.404l1.125-1.308l0.537-0.588
		c0.27-0.312,0.54-0.54,0.765-0.768v-0.228c0.396-0.444,0.818-0.864,1.26-1.26l1.08-0.954l0.357-0.318l1.125-0.996l1.396-1.08
		l0.446-0.36l0.9-0.684l0.54-0.36l1.437-0.996l116.881-77.851c0.749-0.492,1.589-0.828,2.472-0.984
		c0.879-0.168,1.785-0.15,2.657,0.048c0.877,0.192,1.705,0.558,2.437,1.08c0.732,0.516,1.354,1.176,1.83,1.938l0.987,1.625v0.408
		l0.854,1.536l0.72,1.404V106l0.315,0.63c0.126,0.233,0.23,0.474,0.314,0.725l0.676,1.62c0.158,0.312,0.294,0.624,0.401,0.954
		c-0.023,0.21-0.023,0.426,0,0.63v0.408c4.188,11.849,4.362,24.754,0.494,36.711c-3.916,12.186-11.846,22.661-22.478,29.704
		l-54.346,36.166c-0.858,0.564-1.533,1.368-1.932,2.322c-0.402,0.947-0.513,1.997-0.321,3.005c0.195,1.02,0.681,1.949,1.403,2.682
		c0.72,0.733,1.641,1.236,2.646,1.439l63.792,13.02c12.766,2.634,24.237,9.617,32.479,19.775
		c8.236,10.157,12.74,22.865,12.742,35.967c0.36-0.492,0.091,3.071,0.091,3.071V294.879z"/>
</g>
</svg>
