<?xml version="1.0" encoding="utf-8"?>
<!-- Generator: Adobe Illustrator 16.0.0, SVG Export Plug-In . SVG Version: 6.00 Build 0)  -->
<!DOCTYPE svg PUBLIC "-//W3C//DTD SVG 1.1//EN" "https://www.w3.org/Graphics/SVG/1.1/DTD/svg11.dtd">
<svg version="1.1" id="Layer_1" xmlns="https://www.w3.org/2000/svg" xmlns:xlink="https://www.w3.org/1999/xlink" x="0px" y="0px"
	 width="200px" height="200px" viewBox="200 200 200 200" enable-background="new 200 200 200 200" xml:space="preserve">
<title>Square Avatar 02</title>
<desc>Created with Sketch.</desc>
<linearGradient id="SVGID_1_" gradientUnits="userSpaceOnUse" x1="1169.3691" y1="491.5029" x2="1134.6337" y2="688.4977" gradientTransform="matrix(1 0 0 1 -852 -290)">
	<stop  offset="0" style="stop-color:#8E2DE2"/>
	<stop  offset="1" style="stop-color:#4A00E0"/>
</linearGradient>
<path fill="url(#SVGID_1_)" d="M300,200c-55.239,0-100,44.78-100,100.003C200,355.228,244.761,400,300,400
	c55.231,0,100-44.772,100-99.997C400,244.78,355.229,200,300,200z M294.282,300.706c0,4.666-0.584,9.012-1.75,13.05
	c-1.166,4.031-2.962,7.559-5.388,10.586c-2.428,3.023-5.519,5.408-9.265,7.14c-3.753,1.731-8.21,2.601-13.378,2.601
	c-5.357,0-9.926-0.912-13.708-2.741c-3.781-1.828-6.855-4.272-9.217-7.329c-2.364-3.057-4.097-6.6-5.201-10.638
	c-1.104-4.03-1.655-8.255-1.655-12.667v-34.314h15.504v34.314c0,2.588,0.251,5.045,0.757,7.377c0.505,2.332,1.324,4.409,2.458,6.24
	c1.136,1.824,2.6,3.274,4.397,4.345c1.795,1.075,4.016,1.61,6.664,1.61c2.648,0,4.885-0.557,6.714-1.658
	c1.826-1.1,3.308-2.564,4.441-4.392c1.135-1.829,1.939-3.922,2.41-6.288c0.475-2.367,0.709-4.774,0.709-7.234v-34.314h15.506
	L294.282,300.706L294.282,300.706z M352.422,333.516v-6.621c-5.103,4.728-10.998,7.088-17.677,7.088
	c-4.411,0-8.572-0.83-12.478-2.501c-3.908-1.671-7.326-4.019-10.26-7.042c-2.93-3.029-5.245-6.668-6.945-10.925
	c-1.702-4.251-2.555-8.931-2.555-14.036c0-4.599,0.852-8.951,2.555-13.046c1.7-4.096,4.047-7.662,7.043-10.683
	c2.993-3.028,6.538-5.42,10.635-7.184c4.096-1.764,8.508-2.648,13.234-2.648c6.238,0,11.689,1.312,16.355,3.922
	c4.665,2.616,8.16,6.192,10.494,10.73l-11.534,8.697c-1.511-3.023-3.704-5.375-6.569-7.043c-2.871-1.666-5.975-2.504-9.313-2.504
	c-2.587,0-4.934,0.516-7.045,1.559c-2.112,1.043-3.922,2.488-5.436,4.353c-1.516,1.855-2.682,4.018-3.5,6.471
	c-0.82,2.46-1.229,5.105-1.229,7.94c0,2.899,0.443,5.582,1.324,8.033c0.881,2.46,2.111,4.591,3.687,6.386
	c1.577,1.796,3.453,3.197,5.628,4.208c2.172,1.011,4.581,1.51,7.23,1.51c6.05,0,11.502-2.799,16.354-8.411v-2.081h-13.044v-11.242
	h25.9v35.071L352.422,333.516L352.422,333.516z"/>
</svg>
