<svg width="41" height="41" viewBox="0 0 41 41" fill="none" xmlns="http://www.w3.org/2000/svg">
<path d="M21 0C17 0 13.2 1.2 9.9 3.4C6.6 5.6 4 8.7 2.5 12.4C0.999999 16 0.599999 20 1.4 23.9C2.2 27.8 4.1 31.3 6.9 34.1C9.7 36.9 13.3 38.8 17.1 39.6C21 40.4 25 40 28.7 38.5C32.4 37 35.5 34.4 37.7 31.1C39.8 27.8 41 24 41 20C41 14.7 38.9 9.6 35.1 5.9C31.4 2.1 26.3 0 21 0ZM19.7 22.2C19.7 25.7 17.7 28.2 13.1 28.2C8.5 28.2 6.5 25.7 6.5 22.2V13.7H10.3V22C10.3 23.7 11.2 24.9 13.2 24.9C15.2 24.9 16.1 23.7 16.1 22V13.6H19.9V22.2H19.7ZM29.2 28.2C25 28.2 21.5 25.4 21.5 20.8C21.5 16.3 25 13.4 29.2 13.4C32.3 13.4 34.2 14.9 35.3 16.7L32.2 18.3C31.9 17.8 31.4 17.4 30.9 17.1C30.4 16.8 29.8 16.6 29.2 16.6C26.9 16.6 25.2 18.4 25.2 20.7C25.2 23 26.9 24.8 29.2 24.8C30.2 24.8 31.1 24.5 31.9 23.9V22.7H28.6V19.7H35.5V25.2C34.7 26.1 33.7 26.8 32.6 27.3C31.6 28 30.4 28.2 29.2 28.2Z" fill="url(#paint0_linear_1_3)"/>
<defs>
<linearGradient id="paint0_linear_1_3" x1="0.999511" y1="20" x2="40.9995" y2="20" gradientUnits="userSpaceOnUse">
<stop stop-color="#6104FF"/>
<stop offset="1" stop-color="#4100AE"/>
</linearGradient>
</defs>
</svg>
