<svg width="295" height="38" viewBox="0 0 295 38" fill="none" xmlns="http://www.w3.org/2000/svg">
<rect y="20" width="295" height="18" rx="9" fill="#DBDCDE"/>
<rect width="51" height="12" rx="6" fill="#DBDCDE"/>
<path d="M11 29H106" stroke="#F5F3F3" stroke-width="2"/>
<path d="M118 29L145 29" stroke="#F5F3F3" stroke-width="2"/>
<path d="M113.283 27.3391V27.09V27.04H113.333H114.083H114.133V27.09V30.0985C114.133 30.2742 114.185 30.4274 114.288 30.5603C114.388 30.6879 114.533 30.7541 114.733 30.7541C114.962 30.7541 115.13 30.6808 115.246 30.5394L115.247 30.5391C115.368 30.394 115.454 30.1649 115.501 29.8451L115.501 29.8447C115.55 29.5242 115.574 29.1121 115.574 28.6076C115.574 28.3152 115.532 28.0273 115.446 27.7435L115.446 27.743C115.362 27.4576 115.235 27.1906 115.063 26.942L115.063 26.9417C114.895 26.6939 114.681 26.4749 114.421 26.285C114.162 26.0957 113.857 25.9472 113.506 25.8399L113.505 25.8398C113.157 25.7306 112.761 25.6757 112.314 25.6757C111.765 25.6757 111.275 25.7559 110.843 25.9155L110.843 25.9156C110.413 26.073 110.048 26.3032 109.747 26.6061C109.448 26.9067 109.22 27.2731 109.062 27.7061C108.906 28.1368 108.828 28.6278 108.828 29.18C108.828 29.7411 108.906 30.2378 109.062 30.6706C109.22 31.1033 109.452 31.4671 109.757 31.7632C110.065 32.0592 110.446 32.2841 110.902 32.4373L110.902 32.4374C111.358 32.5928 111.885 32.671 112.484 32.671C112.74 32.671 112.993 32.648 113.242 32.602C113.494 32.5556 113.715 32.5049 113.906 32.45C114.099 32.3945 114.238 32.3536 114.322 32.3272L114.37 32.3124L114.385 32.3595L114.583 32.9719L114.597 33.0165L114.554 33.0338C114.405 33.0926 114.211 33.1509 113.974 33.2089C113.739 33.267 113.488 33.315 113.22 33.3529C113.22 33.3529 113.22 33.3529 113.22 33.3529L113.213 33.3034C112.949 33.3411 112.696 33.36 112.456 33.36C111.734 33.36 111.097 33.2668 110.543 33.0804L113.283 27.3391ZM113.283 27.3391C113.236 27.2713 113.167 27.21 113.081 27.1545C112.949 27.0682 112.784 27.0053 112.586 26.9645C112.387 26.9212 112.168 26.9112 111.928 26.9337L111.927 26.9338C111.658 26.961 111.406 27.0324 111.171 27.1483C110.939 27.262 110.736 27.4145 110.562 27.6055L110.562 27.6057C110.39 27.7969 110.256 28.0198 110.16 28.2737C110.063 28.5285 110.015 28.8086 110.015 29.1134C110.015 29.4326 110.055 29.7313 110.134 30.0091L110.134 30.0096C110.216 30.2855 110.336 30.5295 110.496 30.741L110.496 30.741L110.496 30.7415C110.659 30.9515 110.86 31.1182 111.1 31.2413L111.1 31.2414C111.341 31.3628 111.618 31.4285 111.931 31.4398L111.931 31.4398C112.204 31.4488 112.438 31.4185 112.632 31.3469M113.283 27.3391L112.632 31.3469M112.632 31.3469C112.826 31.2762 112.985 31.1807 113.106 31.0593C113.206 30.9618 113.285 30.859 113.343 30.7506C113.386 30.9151 113.477 31.0501 113.618 31.1538C113.777 31.2711 113.959 31.3548 114.163 31.4051C114.364 31.4546 114.549 31.4797 114.719 31.4797C115.101 31.4797 115.41 31.3938 115.641 31.2165C115.87 31.042 116.039 30.8124 116.148 30.5292L116.149 30.5291C116.256 30.2471 116.327 29.9388 116.36 29.6043C116.393 29.2721 116.41 28.9443 116.41 28.6209C116.41 28.1575 116.324 27.7076 116.152 27.2715C115.982 26.8346 115.726 26.4418 115.384 26.0933C115.044 25.7417 114.621 25.464 114.116 25.2599C113.611 25.0528 113.024 24.95 112.357 24.95C111.671 24.95 111.055 25.0449 110.508 25.2357L110.508 25.2357C109.965 25.4264 109.501 25.7039 109.118 26.0687L109.118 26.0687C108.738 26.4313 108.447 26.8725 108.247 27.3915L108.247 27.3917C108.049 27.9108 107.95 28.4983 107.95 29.1534C107.95 29.8304 108.047 30.4333 108.243 30.9612C108.439 31.4893 108.728 31.9363 109.111 32.3013C109.494 32.6664 109.967 32.9417 110.527 33.1279L112.632 31.3469C112.632 31.3469 112.632 31.3469 112.632 31.3469ZM111.413 27.8766L111.413 27.8765C111.594 27.7501 111.814 27.6858 112.074 27.6858C112.352 27.6858 112.583 27.7273 112.768 27.8081C112.949 27.8871 113.087 28.0242 113.182 28.223C113.276 28.422 113.325 28.7041 113.325 29.0735C113.325 29.4382 113.281 29.7369 113.194 29.9713C113.108 30.204 112.972 30.3753 112.787 30.4885C112.602 30.602 112.356 30.6609 112.046 30.6609C111.748 30.6609 111.516 30.5866 111.346 30.4432C111.172 30.2944 111.046 30.1007 110.969 29.8603C110.89 29.6149 110.851 29.3527 110.851 29.0735C110.851 28.8228 110.899 28.5925 110.995 28.3821C111.093 28.1702 111.232 28.0021 111.413 27.8766Z" fill="#F5F3F3" stroke="#F5F3F3" stroke-width="0.1"/>
</svg>
