<svg width="295" height="38" viewBox="0 0 295 38" fill="none" xmlns="http://www.w3.org/2000/svg">
<rect y="20" width="295" height="18" rx="9" fill="#DBDCDE"/>
<rect width="51" height="12" rx="6" fill="#DBDCDE"/>
<path d="M11 29H31" stroke="#F5F3F3" stroke-width="2"/>
<path d="M44 29L173 29" stroke="#F5F3F3" stroke-width="2"/>
<path d="M34.02 32.9253L34.0206 32.9249C34.1323 32.8552 34.2215 32.7626 34.287 32.6483C34.3559 32.5322 34.3902 32.4046 34.3902 32.2675C34.3902 32.0603 34.3166 31.8799 34.1718 31.7315C34.0269 31.5831 33.8496 31.5069 33.6451 31.5069C33.4406 31.5069 33.2633 31.5831 33.1184 31.7315C32.9735 31.8799 32.9 32.0603 32.9 32.2675C32.9 32.4748 32.9735 32.6552 33.1184 32.8035C33.2633 32.952 33.4406 33.0282 33.6451 33.0282C33.7818 33.0282 33.9076 32.9944 34.02 32.9253ZM34.02 28.741L34.02 28.741L34.0206 28.7406C34.1324 28.6708 34.2215 28.5782 34.287 28.4639C34.3559 28.3479 34.3902 28.2203 34.3902 28.0832C34.3902 27.876 34.3166 27.6955 34.1718 27.5472C34.0269 27.3988 33.8496 27.3225 33.6451 27.3225C33.4406 27.3225 33.2633 27.3988 33.1184 27.5472C32.9735 27.6955 32.9 27.876 32.9 28.0832C32.9 28.2904 32.9735 28.4709 33.1184 28.6192C33.2633 28.7676 33.4406 28.8439 33.6451 28.8439C33.7818 28.8439 33.9076 28.81 34.02 28.741ZM38.4994 25.0254L38.5324 24.9H38.4027H37.6286H37.5515L37.5319 24.9746L35.1665 33.9746L35.1335 34.1H35.2632H36.0373H36.1144L36.134 34.0254L38.4994 25.0254ZM42.0967 25.0254L42.1297 24.9H42H41.2259H41.1488L41.1292 24.9746L38.7638 33.9746L38.7308 34.1H38.8605H39.6346H39.7118L39.7314 34.0254L42.0967 25.0254Z" fill="#F5F3F3" stroke="#F5F3F3" stroke-width="0.2"/>
</svg>
