<svg width="18" height="14" viewBox="0 0 18 14" fill="none" xmlns="http://www.w3.org/2000/svg">
<path d="M3.4234 4.03288L3.42366 4.0332L3.4234 4.03288ZM3.4234 4.03288L3.39231 3.99425L3.4234 4.03288ZM4.1843 10.5181L4.15865 10.5571C3.06945 9.83994 1.98979 8.75211 1.23682 7.61352C1.10913 7.42044 1.03032 7.28867 0.988618 7.18039C0.945532 7.06851 0.941939 6.98152 0.961018 6.87983L4.1843 10.5181ZM4.1843 10.5181L4.15865 10.5571C4.24891 10.6165 4.3325 10.6717 4.39448 10.7128L4.45494 10.7529C4.44972 10.7587 4.4439 10.7651 4.43749 10.772C4.40123 10.8113 4.34765 10.8678 4.28065 10.9373C4.14672 11.0763 3.95996 11.2667 3.7527 11.475L3.78814 11.5103L3.7527 11.475C3.4301 11.7991 3.23968 11.9939 3.12765 12.1203C3.01722 12.2449 2.97537 12.3108 2.96335 12.3762L2.96334 12.3763M4.1843 10.5181L2.96334 12.3763M2.96334 12.3763C2.94496 12.4765 2.94697 12.5688 2.97241 12.6544C2.99788 12.7402 3.04596 12.8164 3.11526 12.8857L3.11527 12.8857M2.96334 12.3763L3.11527 12.8857M3.11527 12.8857C3.1845 12.955 3.26049 13.003 3.34617 13.0286C3.43171 13.0541 3.52391 13.0562 3.62437 13.0382C3.63924 13.0355 3.6536 13.0288 3.66706 13.021C3.68105 13.0129 3.69725 13.0017 3.7163 12.9871C3.75442 12.9579 3.80749 12.9124 3.88263 12.8438C4.03314 12.7064 4.27578 12.473 4.67117 12.0843C5.46218 11.3065 6.86667 9.90441 9.37296 7.39791C11.4325 5.33819 12.8361 3.92979 13.728 3.02662C14.174 2.57507 14.4922 2.24963 14.7006 2.03218C14.8047 1.9235 14.8817 1.8415 14.9336 1.7841C14.9594 1.75546 14.9795 1.7325 14.9936 1.71521C15.0006 1.7066 15.0066 1.69887 15.0113 1.69222C15.0149 1.68717 15.0213 1.67788 15.0247 1.6676L14.9814 1.65332M3.11527 12.8857L14.9814 1.65332M14.9814 1.65332L15.0247 1.6676C15.1015 1.43477 15.0148 1.18858 14.8083 1.03438L14.8083 1.03438M14.9814 1.65332L14.8083 1.03438M14.8083 1.03438C14.7501 0.990907 14.6525 0.965125 14.5608 0.955039C14.4686 0.944905 14.3669 0.948929 14.2977 0.977479L14.8083 1.03438ZM13.9325 4.17356L13.8978 4.13899C13.9905 4.04596 14.0789 3.96118 14.1466 3.89947C14.1804 3.86868 14.2096 3.8432 14.2318 3.82521C14.2428 3.8163 14.2529 3.80858 14.2615 3.80286C14.2656 3.80005 14.2704 3.79706 14.2754 3.79458L14.2756 3.79447C14.2786 3.79296 14.2894 3.7875 14.3031 3.7875C14.3195 3.7875 14.3346 3.79419 14.3433 3.7983C14.354 3.80343 14.366 3.81039 14.3786 3.81843C14.404 3.83459 14.4358 3.85753 14.4722 3.88555C14.5454 3.94175 14.6404 4.02077 14.7463 4.11289C14.9581 4.29722 15.2154 4.53579 15.4314 4.75323C15.939 5.26432 16.4214 5.85252 16.7717 6.38781C16.8631 6.5275 16.9335 6.63857 16.9803 6.73513C17.0275 6.83249 17.0525 6.91869 17.0498 7.00878C17.0472 7.0985 17.0173 7.18659 16.9648 7.28803C16.9126 7.38903 16.8358 7.5071 16.7358 7.65664C16.3309 8.26262 15.9684 8.7016 15.4162 9.25496C13.8691 10.8052 12.178 11.6803 10.1499 11.9786C9.57555 12.063 8.38085 12.0554 7.78986 11.9637L7.79753 11.9143L7.78986 11.9637C7.57615 11.9305 7.28337 11.8722 7.03329 11.8161C6.9082 11.788 6.79333 11.7605 6.70403 11.7367C6.65942 11.7249 6.62078 11.7139 6.59025 11.7042C6.56121 11.695 6.53543 11.6857 6.51948 11.6768C6.51948 11.6768 6.51946 11.6768 6.51946 11.6768L13.9325 4.17356ZM13.9325 4.17356L13.8978 4.13899C13.8051 4.23201 13.7209 4.32024 13.6597 4.38757C13.6292 4.42115 13.604 4.45 13.5863 4.47186C13.5776 4.48267 13.57 4.49257 13.5644 4.50088C13.5617 4.50495 13.5587 4.50969 13.5562 4.51462C13.555 4.51709 13.5534 4.52051 13.5521 4.52455C13.551 4.52798 13.549 4.53538 13.5495 4.5447C13.5502 4.5577 13.5556 4.56745 13.5575 4.57072C13.5602 4.57544 13.5633 4.57968 13.5659 4.58309C13.5713 4.59002 13.5783 4.5976 13.5858 4.6053C13.6011 4.62091 13.6223 4.64054 13.6475 4.66265C13.6981 4.70703 13.7671 4.76351 13.8425 4.82155C14.4777 5.3107 15.3183 6.2056 15.7722 6.87616L15.8136 6.84813M13.9325 4.17356L15.8136 6.84813M15.8136 6.84813L15.7722 6.87616L15.8537 6.99644L15.8136 6.84813ZM10.9503 7.08868L10.9615 7.07749L11.3938 6.64421C11.5129 6.52484 11.6237 6.41621 11.7063 6.33732C11.7476 6.29792 11.7821 6.26568 11.8072 6.24317C11.8197 6.23198 11.8303 6.22275 11.8386 6.21612C11.8426 6.2129 11.8468 6.20964 11.8507 6.20697C11.8527 6.20568 11.8555 6.20386 11.8589 6.20216C11.8599 6.20164 11.8698 6.1962 11.8831 6.1962C11.9028 6.1962 11.9175 6.20549 11.9265 6.2136C11.9353 6.22156 11.9416 6.23102 11.9462 6.23922C11.9555 6.25571 11.9631 6.27687 11.9695 6.29956C11.9827 6.3457 11.9943 6.40949 12.004 6.48368C12.0234 6.63265 12.0359 6.8304 12.0351 7.02843C12.032 7.883 11.7601 8.52981 11.1468 9.14343L11.1115 9.10809L11.1468 9.14343C10.5519 9.7386 9.81044 10.0526 9.00481 10.0489C8.88523 10.0484 8.70504 10.0306 8.55086 10.0084C8.47357 9.9973 8.40173 9.98494 8.34637 9.97281C8.3188 9.96677 8.2944 9.96059 8.27511 9.9544C8.26551 9.95131 8.25628 9.94795 8.24818 9.94424L10.9503 7.08868ZM10.9503 7.08868L10.9476 7.10426L10.9048 7.35132C10.8564 7.62993 10.6822 8.00467 10.4981 8.22559L10.5343 8.25578L10.4981 8.22559C10.2109 8.57034 9.77276 8.82883 9.35516 8.90135L9.35515 8.90135L9.10789 8.94433L9.09228 8.94705L9.08109 8.95825L8.64187 9.39766C8.52074 9.51885 8.41254 9.63136 8.33574 9.71511C8.29744 9.75688 8.26646 9.79203 8.2455 9.81773C8.23519 9.83037 8.22637 9.84186 8.22025 9.85122C8.21741 9.85556 8.21369 9.86163 8.21098 9.86828C8.20972 9.87138 8.2074 9.87763 8.20672 9.88556C8.20611 9.89284 8.2062 9.9113 8.22156 9.92669L10.9503 7.08868ZM14.2521 1.00879C14.2607 1.00175 14.2685 0.995655 14.2752 0.990834L14.2521 1.00879ZM14.2521 1.00879C14.2348 1.02291 14.2125 1.04223 14.1861 1.06589M14.2521 1.00879L14.1861 1.06589M14.1861 1.06589C14.1331 1.11331 14.0619 1.17947 13.9776 1.25942M14.1861 1.06589L13.9776 1.25942M13.9776 1.25942C13.8092 1.41938 13.5877 1.6354 13.3539 1.86891M13.9776 1.25942L13.3539 1.86891M13.3539 1.86891L12.5277 2.69401L13.3539 1.86891ZM8.32119 4.0174L8.32118 4.0174L6.07188 6.32869L6.02337 6.31658C6.02337 6.31658 6.02337 6.31659 6.02337 6.31659C5.97961 6.49187 5.96062 6.75798 5.96374 7.02128C5.96687 7.28465 5.99219 7.55187 6.04005 7.72946C6.07581 7.86214 6.14655 8.04755 6.22411 8.22316C6.30153 8.39847 6.38758 8.56819 6.45496 8.66847L6.49593 8.72949L5.88901 9.33615L5.28121 9.9437L5.01849 9.77849L4.99187 9.82081L5.01849 9.77848C3.98587 9.12917 2.93668 8.13798 2.28889 7.20047L2.28889 7.20047L2.14827 6.99699L2.28558 6.79863L2.28559 6.79863C2.83681 6.00218 3.79426 5.04121 4.60576 4.47009C5.701 3.69927 6.99087 3.20925 8.27465 3.07569C8.46543 3.05584 8.81314 3.05197 9.16395 3.06074C9.51472 3.06951 9.86366 3.09078 10.0569 3.12024C10.5907 3.20166 11.1843 3.35719 11.6548 3.53883L11.6752 3.54668L11.2176 4.00514L10.7356 4.48797L10.6853 4.45213C10.5995 4.391 10.4274 4.30359 10.2487 4.22398C10.0692 4.14406 9.87705 4.06932 9.74916 4.03474C9.57673 3.9881 9.30258 3.9633 9.03298 3.96001C8.76348 3.95673 8.49072 3.97484 8.32119 4.0174ZM9.4343 5.1039L9.43431 5.1039C9.52741 5.12771 9.66376 5.17652 9.77744 5.22351C9.83416 5.24696 9.88406 5.26947 9.9193 5.28765C9.9218 5.28894 9.9242 5.29019 9.9265 5.29141C9.90933 5.30896 9.88675 5.33192 9.8592 5.35983C9.79035 5.4296 9.69073 5.53004 9.56774 5.65373C9.32179 5.90109 8.98253 6.24128 8.60933 6.61458L7.30092 7.92335L7.24893 7.82074C7.24893 7.82074 7.24893 7.82074 7.24893 7.82073C7.13763 7.60097 7.05014 7.23802 7.05074 6.99991C7.05404 5.7519 8.25241 4.80147 9.4343 5.1039Z" fill="#DBDCDE" stroke="#DBDCDE" stroke-width="0.1"/>
</svg>
