<svg width="328" height="57" viewBox="0 0 328 57" fill="none" xmlns="http://www.w3.org/2000/svg">
<path d="M24.1818 15.1818C28.3758 15.1818 31.7727 11.7849 31.7727 7.59091C31.7727 3.39693 28.3758 0 24.1818 0C19.9878 0 16.5909 3.39693 16.5909 7.59091C16.5909 11.7849 19.9878 15.1818 24.1818 15.1818ZM24.1818 3.79545C26.2693 3.79545 27.9773 5.50341 27.9773 7.59091C27.9773 9.67841 26.2693 11.3864 24.1818 11.3864C22.0943 11.3864 20.3864 9.67841 20.3864 7.59091C20.3864 5.50341 22.0943 3.79545 24.1818 3.79545Z" fill="#DBDCDE"/>
<path d="M24.1818 17.0795C19.1149 17.0795 9 19.6225 9 24.6704V30.3636H39.3636V24.6704C39.3636 19.6225 29.2487 17.0795 24.1818 17.0795ZM35.5682 26.5681H12.7955V24.6894C13.175 23.323 19.058 20.875 24.1818 20.875C29.3057 20.875 35.1886 23.323 35.5682 24.6704V26.5681Z" fill="#DBDCDE"/>
<rect y="41" width="328" height="16" rx="8" fill="#DBDCDE"/>
</svg>
