<?xml version="1.0" encoding="utf-8"?>
<!-- Generator: Adobe Illustrator 16.0.0, SVG Export Plug-In . SVG Version: 6.00 Build 0)  -->
<!DOCTYPE svg PUBLIC "-//W3C//DTD SVG 1.1//EN" "http://www.w3.org/Graphics/SVG/1.1/DTD/svg11.dtd">
<svg version="1.1" id="Layer_1" xmlns="http://www.w3.org/2000/svg" xmlns:xlink="http://www.w3.org/1999/xlink" x="0px" y="0px"
	 width="350px" height="350px" viewBox="0 0 350 350" enable-background="new 0 0 350 350" xml:space="preserve">
<g>
	<path fill="#DBDCDE" d="M114.664,125.421c0,4.943-4.007,8.948-8.947,8.948H51.029c-4.94,0-8.946-4.005-8.946-8.948V70.733
		c0-4.938,4.006-8.944,8.946-8.944h54.688c4.939,0,8.946,4.006,8.946,8.944L114.664,125.421L114.664,125.421z"/>
	<path fill="#DBDCDE" d="M114.664,202.212c0,4.943-4.007,8.948-8.947,8.948H51.029c-4.94,0-8.946-4.005-8.946-8.948v-54.688
		c0-4.938,4.006-8.944,8.946-8.944h54.688c4.939,0,8.946,4.006,8.946,8.944L114.664,202.212L114.664,202.212z"/>
	<path fill="#DBDCDE" d="M307.917,158.922c0,7.546-6.116,13.66-13.656,13.66h-83.48c-7.54,0-13.655-6.114-13.655-13.66V75.442
		c0-7.538,6.115-13.653,13.655-13.653h83.48c7.54,0,13.656,6.115,13.656,13.653V158.922L307.917,158.922z"/>
	<path fill="#DBDCDE" d="M307.917,274.397c0,7.545-6.116,13.658-13.656,13.658h-83.48c-7.54,0-13.655-6.113-13.655-13.658v-83.48
		c0-7.539,6.115-13.653,13.655-13.653h83.48c7.54,0,13.656,6.114,13.656,13.653V274.397L307.917,274.397z"/>
	<path fill="#DBDCDE" d="M191.538,202.48c0,4.943-4.007,8.948-8.946,8.948h-54.688c-4.94,0-8.946-4.005-8.946-8.948V70.733
		c0-4.938,4.006-8.944,8.946-8.944h54.688c4.939,0,8.946,4.006,8.946,8.944v54.688V202.48z"/>
	<path fill="#DBDCDE" d="M51.031,288.211c-4.943,0-8.948-4.007-8.948-8.946v-54.688c0-4.939,4.005-8.945,8.948-8.945h132.748
		c4.938,0,8.944,4.006,8.944,8.945v54.688c0,4.939-4.006,8.946-8.944,8.946h-32.67H51.031z"/>
</g>
</svg>
